<?xml version="1.0" encoding="UTF-8"?>
<svg xmlns="http://www.w3.org/2000/svg" xmlns:xlink="http://www.w3.org/1999/xlink" width="24px" height="24px" viewBox="0 0 24 24" version="1.1">
<g id="surface1">
<path style=" stroke:none;fill-rule:nonzero;fill:rgb(100%,100%,100%);fill-opacity:1;" d="M 22.902344 4.878906 C 23.6875 5.726562 24.046875 6.742188 23.996094 7.960938 L 23.996094 17.445312 C 23.976562 18.683594 23.5625 19.703125 22.753906 20.5 C 21.945312 21.296875 20.921875 21.710938 19.683594 21.75 L 4.3125 21.75 C 3.074219 21.710938 2.054688 21.289062 1.25 20.476562 C 0.453125 19.660156 0.0390625 18.585938 0 17.257812 L 0 7.960938 C 0.0390625 6.742188 0.453125 5.726562 1.25 4.878906 C 2.054688 4.117188 3.074219 3.695312 4.3125 3.65625 L 5.691406 3.65625 L 4.503906 2.445312 C 4.234375 2.179688 4.097656 1.835938 4.097656 1.425781 C 4.097656 1.011719 4.234375 0.671875 4.503906 0.402344 C 4.773438 0.136719 5.113281 0 5.527344 0 C 5.9375 0 6.28125 0.136719 6.554688 0.402344 L 9.988281 3.65625 L 14.113281 3.65625 L 17.605469 0.402344 C 17.890625 0.136719 18.242188 0 18.65625 0 C 19.070312 0 19.410156 0.136719 19.683594 0.402344 C 19.949219 0.671875 20.085938 1.011719 20.085938 1.425781 C 20.085938 1.835938 19.949219 2.179688 19.683594 2.445312 L 18.496094 3.65625 L 19.871094 3.65625 C 21.109375 3.695312 22.121094 4.117188 22.902344 4.878906 Z M 21.085938 8.148438 C 21.066406 7.695312 20.910156 7.332031 20.582031 7.046875 C 20.339844 6.757812 19.925781 6.605469 19.519531 6.585938 L 4.503906 6.585938 C 4.054688 6.605469 3.683594 6.757812 3.398438 7.046875 C 3.109375 7.332031 2.957031 7.695312 2.9375 8.148438 L 2.9375 17.257812 C 2.9375 17.691406 3.09375 18.054688 3.398438 18.359375 C 3.703125 18.664062 4.074219 18.820312 4.503906 18.820312 L 19.519531 18.820312 C 19.949219 18.820312 20.316406 18.664062 20.609375 18.359375 C 20.90625 18.054688 21.066406 17.691406 21.085938 17.257812 Z M 8.695312 10.148438 C 8.992188 10.445312 9.148438 10.808594 9.167969 11.234375 L 9.167969 12.796875 C 9.148438 13.226562 8.996094 13.589844 8.710938 13.882812 C 8.417969 14.179688 8.054688 14.328125 7.601562 14.328125 C 7.152344 14.328125 6.78125 14.179688 6.496094 13.882812 C 6.210938 13.589844 6.054688 13.226562 6.039062 12.796875 L 6.039062 11.234375 C 6.054688 10.808594 6.214844 10.445312 6.511719 10.148438 C 6.804688 9.851562 7.128906 9.699219 7.601562 9.679688 C 8.035156 9.699219 8.398438 9.851562 8.695312 10.148438 Z M 17.671875 10.148438 C 17.96875 10.445312 18.125 10.808594 18.144531 11.234375 L 18.144531 12.796875 C 18.125 13.226562 17.972656 13.589844 17.6875 13.882812 C 17.398438 14.179688 17.03125 14.328125 16.578125 14.328125 C 16.128906 14.328125 15.765625 14.179688 15.472656 13.882812 C 15.144531 13.589844 15.03125 13.226562 15.019531 12.796875 L 15.019531 11.234375 C 15.03125 10.808594 15.191406 10.445312 15.488281 10.148438 C 15.78125 9.851562 16.148438 9.699219 16.578125 9.679688 C 17.011719 9.699219 17.375 9.851562 17.671875 10.148438 Z M 17.671875 10.148438 "/>
</g>
</svg>
