<?xml version="1.0" encoding="UTF-8"?>
<svg xmlns="http://www.w3.org/2000/svg" xmlns:xlink="http://www.w3.org/1999/xlink" width="150px" height="150px" viewBox="0 0 320 320" version="1.1">
<g id="surface1">
<path style=" stroke:none;fill-rule:nonzero;fill:rgb(100%,9.019608%,9.411765%);fill-opacity:1;" d="M 193.800781 58.070312 C 193.800781 58.070312 201.285156 64.109375 210.886719 66.441406 C 218.289062 68.238281 226.558594 68.679688 230.984375 69.085938 C 242.511719 70.144531 244.761719 72.75 248.019531 74.90625 C 251.554688 77.238281 253.03125 79.054688 258.664062 84.535156 C 258.625 84.890625 252.453125 81.269531 244.105469 78.503906 C 239.074219 76.839844 233.445312 76.839844 226.230469 76.734375 C 218.734375 76.625 212.28125 75.300781 207.496094 72.691406 C 197.710938 67.335938 193.726562 58.625 193.800781 58.070312 Z M 193.800781 58.070312 "/>
<path style=" stroke:none;fill-rule:nonzero;fill:rgb(100%,9.019608%,9.411765%);fill-opacity:1;" d="M 119.050781 212.671875 C 119.050781 212.671875 82.96875 233.410156 85.808594 259.828125 C 88.648438 286.25 130.128906 287.386719 132.683594 287.386719 C 135.238281 287.386719 154.558594 285.964844 166.773438 282.839844 C 174.308594 280.910156 201.804688 273.816406 229.214844 259.660156 C 246.226562 250.875 262.441406 238.621094 276.148438 225.453125 C 276.148438 225.453125 251.355469 242.230469 243.398438 243.078125 C 243.398438 243.078125 254.558594 234.261719 260.523438 225.171875 C 260.523438 225.171875 236.585938 244 224.730469 244.488281 C 224.730469 244.488281 265.355469 218.921875 280.980469 199.605469 C 280.980469 199.605469 258.503906 216.554688 250.398438 217.84375 C 250.398438 217.84375 262.003906 211.765625 294.613281 165.800781 C 294.613281 165.800781 254.679688 202.84375 215.78125 227.226562 C 207.023438 232.710938 198.320312 236.683594 190.136719 240.320312 C 179.953125 244.84375 174.726562 246.683594 164.191406 249.53125 C 157.164062 251.429688 158.875 251.433594 138.769531 252.476562 C 128.085938 253.03125 119.980469 250.078125 114.453125 245.105469 C 104.675781 236.304688 119.050781 212.671875 119.050781 212.671875 Z M 119.050781 212.671875 "/>
<path style=" stroke:none;fill-rule:nonzero;fill:rgb(22.352941%,38.039216%,74.117649%);fill-opacity:1;" d="M 273.410156 101.328125 C 273.410156 101.328125 254.25 89.703125 250.480469 88.449219 C 246.710938 87.195312 244.039062 86.523438 238.546875 86.566406 C 230.339844 86.625 211.683594 93.320312 204.148438 98.34375 C 196.613281 103.371094 181.058594 115.933594 181.058594 115.933594 C 181.058594 115.933594 199.59375 129.128906 203.050781 145.933594 C 206.503906 162.738281 201.164062 182.683594 195.511719 189.910156 C 195.511719 189.910156 207.175781 185.808594 212.316406 171.21875 C 217.183594 157.398438 216.871094 149.703125 218.59375 133.523438 C 219.28125 127.105469 231.980469 110.070312 241.875 104.414062 C 250.308594 99.59375 244.984375 101.171875 253.464844 99.445312 C 258.886719 98.339844 273.410156 101.328125 273.410156 101.328125 Z M 273.410156 101.328125 "/>
<path style=" stroke:none;fill-rule:nonzero;fill:rgb(22.352941%,38.039216%,74.117649%);fill-opacity:1;" d="M 147.71875 36.476562 C 147.71875 36.476562 131.484375 36.800781 130.710938 36.941406 C 123.449219 38.273438 120.796875 39.019531 113.445312 43.476562 C 102.496094 50.109375 96.796875 67.671875 95.828125 81.671875 C 94.863281 95.671875 103.320312 110.121094 120.941406 115.675781 C 120.941406 115.675781 115.59375 109.476562 114.390625 103.195312 C 114.390625 103.195312 125.40625 115.691406 133.855469 117.378906 C 142.304688 119.070312 159.875 122.164062 164.460938 124.09375 C 169.046875 126.023438 188.136719 132.585938 192.535156 144.839844 C 197.941406 159.886719 197.074219 168.363281 190.039062 180.089844 C 182.289062 193.011719 169.386719 199.941406 160 203.566406 C 150.613281 207.191406 136.578125 209.59375 131.03125 209.351562 C 131.03125 209.351562 145.308594 203.484375 153.03125 198.441406 C 161.351562 193.003906 173.550781 184.488281 175.71875 168.296875 C 177.890625 152.09375 138.046875 145.960938 134.445312 145.578125 C 122.96875 144.371094 114.929688 142.816406 105.035156 139.535156 C 95.140625 136.253906 83.839844 132.179688 73.371094 114.734375 C 66.820312 103.816406 63.066406 89.195312 67.753906 72.15625 C 72.84375 53.65625 85.78125 36.871094 91.304688 32.851562 C 91.304688 32.851562 87.40625 39.714844 84.285156 49.070312 C 84.285156 49.070312 99.804688 37.429688 106.03125 35.054688 C 113.769531 32.101562 121.171875 30.164062 129.691406 30.976562 C 138.761719 31.828125 147.71875 36.476562 147.71875 36.476562 Z M 147.71875 36.476562 "/>
<path style=" stroke:none;fill-rule:nonzero;fill:rgb(22.352941%,38.039216%,74.117649%);fill-opacity:1;" d="M 77.539062 36.808594 C 77.539062 36.808594 59.144531 56.738281 56.386719 77.585938 C 53.625 98.433594 65.273438 124.183594 74.78125 133.078125 C 84.285156 141.976562 100.226562 147.488281 120.15625 151.171875 C 140.085938 154.851562 153.234375 154.851562 159.996094 158.53125 C 166.753906 162.210938 167.984375 164.269531 169.210938 168.296875 C 170.433594 172.320312 168.289062 177.230469 162.769531 182.441406 C 157.25 187.648438 152.960938 191.328125 144.070312 196.234375 C 135.179688 201.140625 128.90625 204.039062 121.855469 205.574219 C 121.855469 205.574219 139.324219 195.109375 145.300781 187.953125 C 150.835938 181.320312 150.011719 178.214844 148.703125 176.648438 C 147.226562 174.875 140.710938 176.253906 140.710938 176.253906 C 140.710938 176.253906 115.25 180.113281 106.054688 179.808594 C 96.859375 179.503906 77.464844 178.734375 65 172.210938 C 53.339844 166.109375 44.738281 159.75 32.171875 139.824219 C 32.171875 139.824219 39.21875 149.945312 56.699219 156.378906 C 56.699219 156.378906 42.289062 137.679688 37.691406 123.269531 C 33.089844 108.859375 30.328125 87.089844 30.640625 76.671875 C 30.640625 76.671875 33.730469 89.644531 41.410156 93.933594 C 41.410156 93.933594 44.128906 76.054688 52.101562 62.261719 C 60.070312 48.464844 77.539062 36.808594 77.539062 36.808594 Z M 77.539062 36.808594 "/>
</g>
</svg>
