<?xml version="1.0" encoding="UTF-8"?>
<svg xmlns="http://www.w3.org/2000/svg" xmlns:xlink="http://www.w3.org/1999/xlink" width="50px" height="50px" viewBox="0 0 50 50" version="1.1">
<g id="surface1">
<path style=" stroke:none;fill-rule:nonzero;fill:rgb(100%,9.019608%,9.411765%);fill-opacity:1;" d="M 30.28125 9.074219 C 30.28125 9.074219 31.449219 10.015625 32.949219 10.382812 C 34.109375 10.664062 35.398438 10.730469 36.089844 10.792969 C 37.890625 10.960938 38.242188 11.367188 38.753906 11.703125 C 39.304688 12.070312 39.535156 12.351562 40.417969 13.207031 C 40.410156 13.265625 39.445312 12.699219 38.140625 12.265625 C 37.355469 12.007812 36.476562 12.007812 35.347656 11.988281 C 34.175781 11.972656 33.167969 11.765625 32.421875 11.359375 C 30.890625 10.519531 30.269531 9.160156 30.28125 9.074219 Z M 30.28125 9.074219 "/>
<path style=" stroke:none;fill-rule:nonzero;fill:rgb(100%,9.019608%,9.411765%);fill-opacity:1;" d="M 18.601562 33.230469 C 18.601562 33.230469 12.964844 36.46875 13.40625 40.597656 C 13.851562 44.726562 20.332031 44.902344 20.730469 44.902344 C 21.132812 44.902344 24.148438 44.683594 26.058594 44.195312 C 27.234375 43.890625 31.53125 42.785156 35.816406 40.570312 C 38.472656 39.199219 41.007812 37.285156 43.148438 35.226562 C 43.148438 35.226562 39.273438 37.847656 38.03125 37.980469 C 38.03125 37.980469 39.773438 36.601562 40.707031 35.183594 C 40.707031 35.183594 36.964844 38.125 35.113281 38.203125 C 35.113281 38.203125 41.460938 34.207031 43.902344 31.1875 C 43.902344 31.1875 40.390625 33.835938 39.125 34.039062 C 39.125 34.039062 40.9375 33.089844 46.035156 25.90625 C 46.035156 25.90625 39.792969 31.695312 33.714844 35.503906 C 32.347656 36.359375 30.988281 36.980469 29.707031 37.550781 C 28.117188 38.257812 27.300781 38.542969 25.65625 38.988281 C 24.558594 39.285156 24.824219 39.285156 21.683594 39.449219 C 20.011719 39.535156 18.746094 39.074219 17.882812 38.296875 C 16.355469 36.921875 18.601562 33.230469 18.601562 33.230469 Z M 18.601562 33.230469 "/>
<path style=" stroke:none;fill-rule:nonzero;fill:rgb(22.352941%,38.039216%,74.117649%);fill-opacity:1;" d="M 42.71875 15.832031 C 42.71875 15.832031 39.726562 14.015625 39.136719 13.820312 C 38.546875 13.625 38.132812 13.519531 37.273438 13.527344 C 35.992188 13.535156 33.074219 14.582031 31.898438 15.367188 C 30.722656 16.152344 28.289062 18.113281 28.289062 18.113281 C 28.289062 18.113281 31.1875 20.175781 31.726562 22.800781 C 32.265625 25.429688 31.433594 28.542969 30.546875 29.671875 C 30.546875 29.671875 32.371094 29.03125 33.175781 26.753906 C 33.933594 24.59375 33.886719 23.390625 34.15625 20.863281 C 34.261719 19.859375 36.246094 17.199219 37.792969 16.316406 C 39.109375 15.5625 38.277344 15.808594 39.605469 15.539062 C 40.449219 15.367188 42.71875 15.832031 42.71875 15.832031 Z M 42.71875 15.832031 "/>
<path style=" stroke:none;fill-rule:nonzero;fill:rgb(22.352941%,38.039216%,74.117649%);fill-opacity:1;" d="M 23.082031 5.699219 C 23.082031 5.699219 20.542969 5.75 20.421875 5.773438 C 19.289062 5.980469 18.875 6.097656 17.726562 6.792969 C 16.015625 7.828125 15.125 10.574219 14.972656 12.761719 C 14.824219 14.949219 16.144531 17.207031 18.898438 18.074219 C 18.898438 18.074219 18.0625 17.105469 17.875 16.125 C 17.875 16.125 19.59375 18.078125 20.914062 18.339844 C 22.234375 18.605469 24.980469 19.089844 25.695312 19.390625 C 26.414062 19.691406 29.394531 20.714844 30.082031 22.632812 C 30.929688 24.980469 30.792969 26.308594 29.695312 28.140625 C 28.484375 30.15625 26.464844 31.242188 25 31.808594 C 23.535156 32.375 21.339844 32.75 20.472656 32.710938 C 20.472656 32.710938 22.703125 31.792969 23.910156 31.007812 C 25.210938 30.15625 27.117188 28.828125 27.457031 26.296875 C 27.796875 23.765625 21.570312 22.804688 21.007812 22.746094 C 19.214844 22.558594 17.957031 22.316406 16.410156 21.800781 C 14.867188 21.289062 13.101562 20.652344 11.464844 17.925781 C 10.441406 16.222656 9.855469 13.9375 10.585938 11.273438 C 11.382812 8.382812 13.402344 5.761719 14.265625 5.132812 C 14.265625 5.132812 13.65625 6.207031 13.167969 7.667969 C 13.167969 7.667969 15.59375 5.847656 16.566406 5.476562 C 17.777344 5.015625 18.933594 4.714844 20.265625 4.839844 C 21.679688 4.972656 23.082031 5.699219 23.082031 5.699219 Z M 23.082031 5.699219 "/>
<path style=" stroke:none;fill-rule:nonzero;fill:rgb(22.352941%,38.039216%,74.117649%);fill-opacity:1;" d="M 12.117188 5.75 C 12.117188 5.75 9.242188 8.867188 8.808594 12.121094 C 8.378906 15.378906 10.199219 19.402344 11.683594 20.792969 C 13.167969 22.183594 15.660156 23.046875 18.773438 23.621094 C 21.886719 24.195312 23.941406 24.195312 25 24.769531 C 26.054688 25.34375 26.246094 25.667969 26.4375 26.296875 C 26.628906 26.925781 26.296875 27.691406 25.433594 28.507812 C 24.570312 29.320312 23.898438 29.894531 22.511719 30.660156 C 21.121094 31.429688 20.140625 31.882812 19.039062 32.121094 C 19.039062 32.121094 21.769531 30.484375 22.703125 29.367188 C 23.566406 28.332031 23.4375 27.847656 23.234375 27.601562 C 23.003906 27.324219 21.984375 27.539062 21.984375 27.539062 C 21.984375 27.539062 18.007812 28.144531 16.570312 28.09375 C 15.132812 28.046875 12.105469 27.925781 10.15625 26.90625 C 8.335938 25.953125 6.992188 24.960938 5.027344 21.847656 C 5.027344 21.847656 6.128906 23.429688 8.859375 24.433594 C 8.859375 24.433594 6.609375 21.511719 5.890625 19.261719 C 5.171875 17.007812 4.738281 13.609375 4.789062 11.980469 C 4.789062 11.980469 5.269531 14.007812 6.46875 14.675781 C 6.46875 14.675781 6.894531 11.882812 8.140625 9.726562 C 9.386719 7.574219 12.117188 5.75 12.117188 5.75 Z M 12.117188 5.75 "/>
</g>
</svg>
