<?xml version="1.0" encoding="UTF-8"?>
<svg xmlns="http://www.w3.org/2000/svg" xmlns:xlink="http://www.w3.org/1999/xlink" width="50px" height="50px" viewBox="0 0 50 50" version="1.1">
<g id="surface1">
<path style=" stroke:none;fill-rule:nonzero;fill:rgb(8.235294%,34.509805%,76.078433%);fill-opacity:1;" d="M 30.28125 9.070312 C 30.28125 9.070312 31.453125 10.015625 32.953125 10.375 C 34.109375 10.65625 35.40625 10.726562 36.09375 10.789062 C 37.890625 10.953125 38.242188 11.359375 38.757812 11.695312 C 39.3125 12.0625 39.539062 12.34375 40.421875 13.203125 C 40.414062 13.257812 39.453125 12.695312 38.148438 12.257812 C 37.359375 12 36.484375 12 35.351562 11.984375 C 34.179688 11.96875 33.171875 11.757812 32.421875 11.351562 C 30.890625 10.523438 30.273438 9.15625 30.28125 9.070312 Z M 30.28125 9.070312 "/>
<path style=" stroke:none;fill-rule:nonzero;fill:rgb(8.235294%,34.509805%,76.078433%);fill-opacity:1;" d="M 18.601562 33.226562 C 18.601562 33.226562 12.960938 36.46875 13.40625 40.59375 C 13.851562 44.71875 20.328125 44.898438 20.734375 44.898438 C 21.140625 44.898438 24.15625 44.679688 26.0625 44.1875 C 27.242188 43.882812 31.539062 42.78125 35.820312 40.5625 C 38.476562 39.1875 41.015625 37.273438 43.15625 35.21875 C 43.15625 35.21875 39.28125 37.835938 38.039062 37.96875 C 38.039062 37.96875 39.78125 36.59375 40.710938 35.171875 C 40.710938 35.171875 36.96875 38.117188 35.117188 38.1875 C 35.117188 38.1875 41.460938 34.195312 43.90625 31.171875 C 43.90625 31.171875 40.390625 33.820312 39.125 34.023438 C 39.125 34.023438 40.9375 33.070312 46.03125 25.890625 C 46.03125 25.890625 39.789062 31.679688 33.710938 35.492188 C 32.34375 36.351562 30.984375 36.96875 29.703125 37.539062 C 28.109375 38.242188 27.296875 38.53125 25.648438 38.976562 C 24.554688 39.273438 24.820312 39.273438 21.679688 39.4375 C 20.007812 39.523438 18.742188 39.0625 17.882812 38.289062 C 16.359375 36.921875 18.601562 33.226562 18.601562 33.226562 Z M 18.601562 33.226562 "/>
<path style=" stroke:none;fill-rule:nonzero;fill:rgb(8.235294%,34.509805%,76.078433%);fill-opacity:1;" d="M 42.71875 15.835938 C 42.71875 15.835938 39.726562 14.023438 39.132812 13.820312 C 38.546875 13.625 38.125 13.515625 37.265625 13.523438 C 35.984375 13.53125 33.070312 14.578125 31.890625 15.367188 C 30.710938 16.15625 28.28125 18.117188 28.28125 18.117188 C 28.28125 18.117188 31.179688 20.179688 31.71875 22.804688 C 32.257812 25.429688 31.421875 28.546875 30.539062 29.679688 C 30.539062 29.679688 32.359375 29.039062 33.164062 26.757812 C 33.921875 24.601562 33.875 23.398438 34.148438 20.867188 C 34.257812 19.867188 36.242188 17.203125 37.789062 16.320312 C 39.109375 15.570312 38.273438 15.8125 39.601562 15.546875 C 40.453125 15.367188 42.71875 15.835938 42.71875 15.835938 Z M 42.71875 15.835938 "/>
<path style=" stroke:none;fill-rule:nonzero;fill:rgb(8.235294%,34.509805%,76.078433%);fill-opacity:1;" d="M 23.078125 5.695312 C 23.078125 5.695312 20.539062 5.75 20.421875 5.765625 C 19.289062 5.976562 18.875 6.09375 17.726562 6.789062 C 16.015625 7.828125 15.125 10.570312 14.976562 12.757812 C 14.828125 14.945312 16.148438 17.203125 18.898438 18.070312 C 18.898438 18.070312 18.0625 17.101562 17.875 16.117188 C 17.875 16.117188 19.59375 18.070312 20.914062 18.335938 C 22.234375 18.601562 24.976562 19.085938 25.695312 19.382812 C 26.414062 19.6875 29.398438 20.710938 30.078125 22.625 C 30.921875 24.976562 30.789062 26.296875 29.6875 28.132812 C 28.476562 30.148438 26.460938 31.234375 24.992188 31.804688 C 23.523438 32.375 21.335938 32.75 20.46875 32.710938 C 20.46875 32.710938 22.703125 31.796875 23.90625 31.007812 C 25.203125 30.15625 27.109375 28.828125 27.453125 26.296875 C 27.789062 23.765625 21.5625 22.804688 21.007812 22.75 C 19.21875 22.5625 17.960938 22.320312 16.414062 21.804688 C 14.867188 21.289062 13.101562 20.65625 11.46875 17.929688 C 10.445312 16.226562 9.859375 13.9375 10.59375 11.273438 C 11.390625 8.382812 13.414062 5.757812 14.273438 5.132812 C 14.273438 5.132812 13.664062 6.203125 13.179688 7.664062 C 13.179688 7.664062 15.601562 5.84375 16.578125 5.476562 C 17.789062 5.015625 18.945312 4.710938 20.273438 4.835938 C 21.679688 4.976562 23.078125 5.695312 23.078125 5.695312 Z M 23.078125 5.695312 "/>
<path style=" stroke:none;fill-rule:nonzero;fill:rgb(8.235294%,34.509805%,76.078433%);fill-opacity:1;" d="M 12.117188 5.75 C 12.117188 5.75 9.242188 8.867188 8.8125 12.125 C 8.382812 15.382812 10.203125 19.40625 11.6875 20.796875 C 13.171875 22.1875 15.664062 23.046875 18.78125 23.625 C 21.898438 24.203125 23.953125 24.203125 25.007812 24.773438 C 26.0625 25.351562 26.257812 25.671875 26.445312 26.296875 C 26.632812 26.921875 26.304688 27.695312 25.4375 28.507812 C 24.570312 29.320312 23.90625 29.898438 22.515625 30.664062 C 21.125 31.429688 20.148438 31.882812 19.046875 32.125 C 19.046875 32.125 21.773438 30.492188 22.710938 29.375 C 23.578125 28.335938 23.445312 27.851562 23.242188 27.609375 C 23.007812 27.335938 21.992188 27.546875 21.992188 27.546875 C 21.992188 27.546875 18.015625 28.148438 16.578125 28.101562 C 15.140625 28.054688 12.109375 27.9375 10.164062 26.914062 C 8.34375 25.960938 7 24.96875 5.03125 21.851562 C 5.03125 21.851562 6.132812 23.429688 8.867188 24.4375 C 8.867188 24.4375 6.617188 21.515625 5.898438 19.265625 C 5.179688 17.015625 4.75 13.609375 4.796875 11.984375 C 4.796875 11.984375 5.28125 14.007812 6.476562 14.679688 C 6.476562 14.679688 6.898438 11.882812 8.148438 9.734375 C 9.398438 7.585938 12.117188 5.75 12.117188 5.75 Z M 12.117188 5.75 "/>
</g>
</svg>
