<?xml version="1.0" encoding="utf-8"?>
<!-- Generator: Adobe Illustrator 24.3.0, SVG Export Plug-In . SVG Version: 6.00 Build 0)  -->
<svg version="1.1" id="图层_1" xmlns="http://www.w3.org/2000/svg" xmlns:xlink="http://www.w3.org/1999/xlink" x="0px" y="0px"
	 viewBox="0 0 640 640" style="enable-background:new 0 0 640 640;" xml:space="preserve">
<style type="text/css">
	.st0{fill:#FFFFFF;}
</style>
<g id="图层_2_1_">
	<path class="st0" d="M387.6,116.1c0,0,15,12.1,34.2,16.7c14.8,3.6,31.4,4.5,40.2,5.3c23,2.1,27.5,7.3,34.1,11.6
		c7.1,4.7,10,8.3,21.3,19.3c-0.1,0.7-12.4-6.5-29.1-12.1c-10.1-3.3-21.3-3.3-35.8-3.5c-15-0.2-27.9-2.9-37.5-8.1
		C395.4,134.7,387.5,117.2,387.6,116.1z"/>
	<path class="st0" d="M238.1,425.3c0,0-72.2,41.5-66.5,94.3c5.7,52.8,88.6,55.1,93.8,55.1s43.8-2.8,68.2-9.1
		c15.1-3.9,70.1-18,124.9-46.4c34-17.6,66.5-42.1,93.9-68.4c0,0-49.6,33.5-65.5,35.2c0,0,22.3-17.6,34.2-35.8
		c0,0-47.9,37.7-71.6,38.6c0,0,81.2-51.1,112.5-89.8c0,0-45,33.9-61.2,36.5c0,0,23.2-12.2,88.4-104.1c0,0-79.9,74.1-157.7,122.9
		c-17.5,11-34.9,18.9-51.3,26.2c-20.4,9-30.8,12.7-51.9,18.4c-14,3.8-10.6,3.8-50.8,5.9c-21.4,1.1-37.6-4.8-48.6-14.7
		C209.4,472.6,238.1,425.3,238.1,425.3z"/>
</g>
<g id="图层_3">
	<path class="st0" d="M546.8,202.7c0,0-38.3-23.2-45.9-25.8c-7.5-2.5-12.9-3.9-23.9-3.8c-16.4,0.1-53.7,13.5-68.8,23.6
		s-46.2,35.2-46.2,35.2s37.1,26.4,44,60s-3.8,73.5-15.1,88c0,0,23.3-8.2,33.6-37.4c9.7-27.6,9.1-43,12.6-75.4
		c1.4-12.8,26.8-46.9,46.6-58.2c16.9-9.6,6.2-6.5,23.2-9.9C517.8,196.7,546.8,202.7,546.8,202.7z"/>
	<path class="st0" d="M295.4,72.9c0,0-32.5,0.7-34,0.9c-14.5,2.7-19.8,4.2-34.5,13.1c-21.9,13.3-33.3,48.4-35.2,76.4
		s15,56.9,50.2,68c0,0-10.7-12.4-13.1-25c0,0,22,25,38.9,28.4s52,9.6,61.2,13.4c9.2,3.9,47.4,17,56.1,41.5c10.8,30.1,9.1,47-5,70.5
		c-15.5,25.8-41.3,39.7-60.1,47s-46.8,12.1-57.9,11.6c0,0,28.6-11.7,44-21.8c16.6-10.9,41-27.9,45.4-60.3
		c4.3-32.4-75.4-44.7-82.5-45.4c-22.9-2.4-39-5.5-58.8-12.1s-42.4-14.7-63.3-49.6c-13.1-21.8-20.6-51.1-11.2-85.2
		c10.2-37,36.1-70.6,47.1-78.6c0,0-7.8,13.7-14,32.4c0,0,31-23.3,43.5-28c15.5-5.9,30.3-9.8,47.3-8.2
		C277.5,63.7,295.4,72.9,295.4,72.9z"/>
	<path class="st0" d="M155.1,73.6c0,0-36.8,39.9-42.3,81.6c-5.5,41.7,17.8,93.2,36.8,111s50.9,28.8,90.8,36.2s66.2,7.4,79.7,14.7
		c13.5,7.4,16,11.5,18.4,19.5s-1.8,17.9-12.9,28.3s-19.6,17.8-37.4,27.6s-30.3,15.6-44.4,18.7c0,0,34.9-20.9,46.9-35.2
		c11.1-13.3,9.4-19.5,6.8-22.6c-3-3.5-16-0.8-16-0.8s-50.9,7.7-69.3,7.1s-57.2-2.1-82.1-15.2c-23.3-12.2-40.5-24.9-65.7-64.8
		c0,0,14.1,20.2,49.1,33.1c0,0-28.8-37.4-38-66.2s-14.7-72.4-14.1-93.2c0,0,6.2,25.9,21.5,34.5c0,0,5.4-35.8,21.4-63.3
		S155.1,73.6,155.1,73.6z"/>
</g>
</svg>
